<svg xmlns="http://www.w3.org/2000/svg" viewBox="0 0 300 200" xmlns:v="https://vecta.io/nano"><path d="M0 0h300v200H0z" fill="#039"/><path d="M150 23.34l-2.46 7.63h-8.1l6.58 4.75-2.53 7.62 6.51-4.73 6.51 4.73-2.49-7.68 6.54-4.65h-8.07zm-33.36 8.92l-2.46 7.63h-8.09l6.57 4.74-2.52 7.63 6.5-4.74 6.51 4.74-2.49-7.69 6.54-4.65h-8.06zm66.72 0l-2.46 7.63h-8.1l6.57 4.74-2.52 7.63 6.51-4.74 6.5 4.74-2.49-7.69 6.54-4.65h-8.06zM92.25 56.7l-2.47 7.63h-8.09l6.57 4.75-2.52 7.62 6.51-4.74 6.5 4.74-2.49-7.69 6.54-4.65h-8.06zm115.48 0l-2.46 7.63h-8.09l6.57 4.75-2.53 7.62 6.51-4.74 6.51 4.74-2.49-7.69 6.54-4.65h-8.07zM83.26 89.99l-2.46 7.63h-8.09l6.57 4.75-2.52 7.62 6.5-4.74 6.51 4.74-2.49-7.69 6.54-4.65h-8.06zm133.48 0l-2.47 7.63h-8.09l6.57 4.75-2.52 7.62 6.51-4.74 6.5 4.74-2.49-7.69 6.54-4.65h-8.06zm-9.01 33.26l-2.46 7.63h-8.09l6.57 4.75-2.53 7.62 6.51-4.73 6.51 4.73-2.49-7.69 6.54-4.65h-8.07zm-115.48 0l-2.47 7.63h-8.09l6.57 4.75-2.52 7.62 6.51-4.73 6.5 4.73-2.49-7.69 6.54-4.65h-8.06zm24.39 24.52l-2.46 7.63h-8.09l6.57 4.74-2.52 7.63 6.5-4.74 6.51 4.74-2.49-7.69 6.54-4.65h-8.06zm66.72 0l-2.46 7.63h-8.1l6.57 4.74-2.52 7.63 6.51-4.74 6.5 4.74-2.49-7.69 6.54-4.65h-8.06zM150 156.66l-2.46 7.62h-8.1l6.58 4.75-2.53 7.63 6.51-4.74 6.51 4.74-2.49-7.69 6.54-4.65h-8.07z" fill="#fc0"/></svg>