<svg xmlns="http://www.w3.org/2000/svg" viewBox="144.5 696.5 300 200" xmlns:v="https://vecta.io/nano"><path fill="#fff" d="M144.5 696.5h300v200h-300z"/><path d="M245.927 734.106l-27.735 41.605-27.736-18.49 27.735-41.605z"/><path d="M230.904 719.082l-32.357 48.539-3.467-2.311 32.357-48.539zm10.475 6.916l-32.358 48.534-3.467-2.311 32.358-48.534z" fill="#fff"/><path d="M398.465 835.808l-27.735 41.605-27.736-18.49 27.735-41.605z"/><g fill="#fff"><path d="M383.525 820.755l-32.357 48.533-3.467-2.311 32.357-48.533zm10.317 6.962l-32.357 48.539-3.467-2.311 32.357-48.539z"/><path d="M389.222 857.183l-2.311 3.467-34.671-23.113 2.311-3.467z"/></g><circle fill="#c60c30" cx="294.5" cy="796.5" r="50"/><path fill="#003478" d="M252.898 768.765c-7.659 11.488-4.555 27.01 6.934 34.669s27.01 4.554 34.669-6.934 23.18-14.592 34.669-6.934 14.592 23.18 6.934 34.669c-15.317 22.977-46.361 29.185-69.337 13.867s-29.187-46.361-13.869-69.337"/><path d="M218.187 817.311l27.735 41.605-27.736 18.49-27.735-41.605z"/><path d="M198.543 825.401L230.9 873.94l-3.467 2.311-32.357-48.539zm10.482-6.956l32.358 48.534-3.467 2.311-32.358-48.534z" fill="#fff"/><path d="M370.735 715.623l27.735 41.605-27.736 18.49-27.735-41.605z"/><g fill="#fff"><path d="M351.162 723.678l32.358 48.534-3.467 2.311-32.358-48.534zm10.327-6.899l32.357 48.539-3.467 2.311-32.357-48.539z"/><path d="M386.948 732.4l2.311 3.467-34.67 23.112-2.311-3.467z"/></g><path d="M371.941 739.841l4.622 6.933-6.934 4.623-4.622-6.933z"/><path fill="#fff" d="M223.992 841.026l2.311 3.467-13.869 9.245-2.311-3.467z"/></svg>