<svg xmlns="http://www.w3.org/2000/svg" viewBox="744.5 921.5 300 150" xmlns:v="https://vecta.io/nano"><path fill="#fff" d="M744.5 921.5h299.843v149.983H744.5z"/><path fill="#cf142b" d="M879.428 1011.444v60.039h29.988v-60.039h134.928V981.46H909.416V921.5h-29.988v59.96H744.5v29.984z"/><path d="M919.415 970.049V921.5h97.08zm0 52.884v48.55h97.08zm-49.987 0v48.55h-97.079zm0-52.884V921.5h-97.079zm-124.927-34.607v36.051h72.087zm299.842 0v36.051h-72.087zm0 122.099v-36.051h-72.087zm-299.842 0v-36.051h72.087z" fill="#00247d"/><path d="M1044.343 921.5h-16.654L927.9 971.493h16.654L1044.5 921.5m-183.557 99.987h-16.654L744.5 1071.48h16.654l99.946-49.993m-33.332-49.955h16.653L744.5 921.5v8.385zm133.255 49.936h-16.654l99.921 50.032v-8.385z" fill="#cf142b"/></svg>