<svg xmlns="http://www.w3.org/2000/svg" xmlns:xlink="http://www.w3.org/1999/xlink" viewBox="312 717.552 300 157.895" xmlns:v="https://vecta.io/nano"><path fill="#fff" d="M312 717.552h300v157.895H312z"/><path d="M312 717.552h300v12.146H312zm0 24.292h300v12.146H312zm0 24.291h300v12.146H312zm0 24.292h300v12.146H312zm0 24.291h300v12.146H312zm0 24.292h300v12.146H312zm0 24.291h300v12.146H312z" fill="#b22234"/><path fill="#3c3b6e" d="M312 717.552h120v85.02H312z"/><g fill="#fff"><use xlink:href="#B"/><use xlink:href="#C"/><use xlink:href="#D"/><use xlink:href="#E"/><use xlink:href="#B" x="79.579"/><use xlink:href="#D" x="59.684"/><path d="M327.585 732.981l2.859 2.077-1.092 3.36 2.859-2.077 2.858 2.077-1.092-3.36 2.859-2.077h-3.534l-1.091-3.361-1.092 3.361z"/><use xlink:href="#F"/><path d="M367.375 732.981l2.859 2.077-1.092 3.36 2.858-2.077 2.859 2.077-1.092-3.36 2.858-2.077h-3.533L372 729.62l-1.092 3.361z"/><use xlink:href="#G"/><path d="M407.164 732.981l2.859 2.077-1.092 3.36 2.858-2.077 2.859 2.077-1.092-3.36 2.858-2.077h-3.533l-1.092-3.361-1.091 3.361z"/><use xlink:href="#B" y="17.053"/><use xlink:href="#C" y="17.053"/><use xlink:href="#D" y="17.053"/><use xlink:href="#E" y="17.053"/><use xlink:href="#B" x="79.579" y="17.053"/><use xlink:href="#D" x="59.684" y="17.053"/><path d="M327.831 750.062l2.858 2.077-1.091 3.36 2.858-2.077 2.859 2.077-1.092-3.361 2.858-2.076h-3.533l-1.092-3.361-1.092 3.361z"/><use xlink:href="#H"/><path d="M367.621 750.062l2.858 2.077-1.092 3.36 2.859-2.077 2.858 2.077-1.092-3.361 2.859-2.076h-3.534l-1.091-3.361-1.092 3.361zm19.894 0l2.859 2.077-1.092 3.36 2.858-2.077 2.859 2.077-1.092-3.361 2.858-2.076h-3.533l-1.092-3.361-1.092 3.361z"/><use xlink:href="#H" x="59.684"/><path d="M317.94 758.517l2.859 2.076-1.092 3.361 2.858-2.077 2.859 2.077-1.092-3.361 2.858-2.076h-3.533l-1.092-3.361-1.092 3.361zm19.895 0l2.858 2.076-1.092 3.361 2.859-2.077 2.858 2.077-1.091-3.361 2.858-2.076h-3.533l-1.092-3.361-1.092 3.361z"/><use xlink:href="#I"/><path d="M377.624 758.517l2.859 2.076-1.092 3.361 2.858-2.077 2.859 2.077-1.092-3.361 2.859-2.076h-3.534l-1.092-3.361-1.091 3.361zm19.895 0l2.858 2.076-1.091 3.361 2.858-2.077 2.859 2.077-1.092-3.361 2.858-2.076h-3.533l-1.092-3.361-1.092 3.361z"/><use xlink:href="#I" x="59.684"/><use xlink:href="#D" x="-39.301" y="50.845"/><use xlink:href="#B" x="20.383" y="50.845"/><use xlink:href="#J"/><use xlink:href="#K"/><use xlink:href="#L"/><use xlink:href="#J" x="59.684"/><path d="M317.884 792.279l2.858 2.077-1.092 3.361 2.859-2.077 2.858 2.077-1.092-3.361 2.859-2.077H323.6l-1.091-3.36-1.092 3.36z"/><use xlink:href="#B" x="20.14" y="67.825"/><use xlink:href="#J" x="-0.243" y="16.98"/><use xlink:href="#K" x="-0.243" y="16.98"/><use xlink:href="#L" x="-0.243" y="16.98"/><use xlink:href="#J" x="59.441" y="16.98"/><path d="M327.89 766.824l2.858 2.077-1.091 3.36 2.858-2.077 2.859 2.077-1.092-3.36 2.858-2.077h-3.533l-1.092-3.361-1.092 3.361z"/><use xlink:href="#M"/><use xlink:href="#G" x="-19.59" y="33.843"/><use xlink:href="#F" x="40.094" y="33.843"/><use xlink:href="#M" x="59.684"/><use xlink:href="#B" x="10.193" y="59.323"/><use xlink:href="#C" x="10.193" y="59.323"/><use xlink:href="#D" x="10.193" y="59.323"/><use xlink:href="#B" x="69.877" y="59.323"/><use xlink:href="#K" x="29.599" y="8.478"/></g><defs ><path id="B" d="M317.638 724.454l2.859 2.077-1.092 3.361 2.858-2.077 2.859 2.077-1.092-3.361 2.858-2.077h-3.533l-1.092-3.36-1.092 3.36z"/><path id="C" d="M337.533 724.454l2.858 2.077-1.092 3.361 2.859-2.077 2.859 2.077-1.092-3.361 2.858-2.077h-3.533l-1.092-3.36-1.092 3.36z"/><path id="D" d="M357.428 724.454l2.858 2.077-1.092 3.361 2.859-2.077 2.858 2.077-1.092-3.361 2.859-2.077h-3.533l-1.092-3.36-1.092 3.36z"/><path id="E" d="M377.323 724.454l2.858 2.077-1.092 3.361 2.859-2.077 2.858 2.077-1.092-3.361 2.859-2.077h-3.534l-1.091-3.36-1.092 3.36z"/><path id="F" d="M347.48 732.981l2.859 2.077-1.092 3.36 2.858-2.077 2.859 2.077-1.092-3.36 2.858-2.077h-3.533l-1.092-3.361-1.092 3.361z"/><path id="G" d="M387.27 732.981l2.858 2.077-1.092 3.36 2.859-2.077 2.858 2.077-1.092-3.36 2.859-2.077h-3.533l-1.092-3.361-1.092 3.361z"/><path id="H" d="M347.726 750.062l2.858 2.077-1.092 3.36 2.859-2.077 2.858 2.077-1.092-3.361 2.859-2.076h-3.533l-1.092-3.361-1.092 3.361z"/><path id="I" d="M357.73 758.517l2.858 2.076-1.092 3.361 2.859-2.077 2.858 2.077-1.092-3.361 2.859-2.076h-3.533l-1.092-3.361-1.092 3.361z"/><path id="J" d="M357.916 775.299l2.858 2.077-1.091 3.361 2.858-2.077 2.859 2.077-1.092-3.361 2.858-2.077h-3.533l-1.092-3.36-1.092 3.36z"/><path id="K" d="M377.811 775.299l2.858 2.077-1.092 3.361 2.859-2.077 2.858 2.077-1.091-3.361 2.858-2.077h-3.533l-1.092-3.36-1.092 3.36z"/><path id="L" d="M397.705 775.299l2.859 2.077-1.092 3.361 2.858-2.077 2.859 2.077-1.092-3.361 2.859-2.077h-3.534l-1.092-3.36-1.091 3.36z"/><path id="M" d="M347.785 766.824l2.858 2.077-1.092 3.36 2.859-2.077 2.858 2.077-1.091-3.36 2.858-2.077h-3.533l-1.092-3.361-1.092 3.361z"/></defs></svg>